<!-- Generated by IcoMoon.io -->
<svg version="1.1" xmlns="http://www.w3.org/2000/svg" width="32" height="32" viewBox="0 0 32 32">
<title>icons8-</title>
<path fill="#ff9800" d="M28 24.667c0 1.867-1.466 3.333-3.333 3.333h-17.333c-1.867 0-3.333-1.466-3.333-3.333v-17.333c0-1.867 1.466-3.333 3.333-3.333h17.333c1.867 0 3.333 1.466 3.333 3.333z"></path>
<path fill="#fff" d="M17.932 20.266c1-0.198 1.935-0.599 2.734-1.133 0.667-0.398 0.867-1.266 0.466-1.932-0.398-0.667-1.266-0.867-1.932-0.466-1.935 1.198-4.466 1.198-6.401 0-0.667-0.401-1.534-0.201-1.932 0.466-0.401 0.667-0.201 1.534 0.466 1.932 0.867 0.534 1.799 0.935 2.734 1.133l-2.667 2.667c-0.534 0.534-0.534 1.401 0 2 0.266 0.268 0.599 0.401 1 0.401 0.333 0 0.732-0.133 1-0.401l2.599-2.599 2.599 2.599c0.534 0.534 1.401 0.534 2 0 0.534-0.531 0.534-1.398 0-2 0 0-2.667-2.667-2.667-2.667zM16 6.667c-2.599 0-4.667 2.068-4.667 4.667s2.068 4.667 4.667 4.667c2.599 0 4.667-2.068 4.667-4.667s-2.068-4.667-4.667-4.667zM16 13.333c-1.133 0-2-0.867-2-2s0.867-2 2-2c1.133 0 2 0.867 2 2s-0.867 2-2 2z"></path>
</svg>
