<svg xmlns="http://www.w3.org/2000/svg" width="32" height="32" viewBox="0 0 32 32"><path fill="#ff9800" d="M28 24.667A3.3 3.3 0 0 1 24.667 28H7.334a3.3 3.3 0 0 1-3.333-3.333V7.334a3.3 3.3 0 0 1 3.333-3.333h17.333A3.3 3.3 0 0 1 28 7.334z"/><path fill="#fff" d="M17.932 20.266c1-.198 1.935-.599 2.734-1.133.667-.398.867-1.266.466-1.932-.398-.667-1.266-.867-1.932-.466a6.15 6.15 0 0 1-6.401 0c-.667-.401-1.534-.201-1.932.466-.401.667-.201 1.534.466 1.932.867.534 1.799.935 2.734 1.133L11.4 22.933c-.534.534-.534 1.401 0 2a1.35 1.35 0 0 0 1 .401c.333 0 .732-.133 1-.401l2.599-2.599 2.599 2.599c.534.534 1.401.534 2 0 .534-.531.534-1.398 0-2l-2.667-2.667zM16 6.667c-2.599 0-4.667 2.068-4.667 4.667s2.068 4.667 4.667 4.667c2.599 0 4.667-2.068 4.667-4.667S18.599 6.667 16 6.667zm0 6.666c-1.133 0-2-.867-2-2s.867-2 2-2 2 .867 2 2-.867 2-2 2z"/></svg>